<svg id="Camada_1" data-name="Camada 1" xmlns="http://www.w3.org/2000/svg" viewBox="0 0 450.5 450.5" width="900" height="900">
    <defs>
        <linearGradient id="goldGradient" x1="0%" y1="0%" x2="100%" y2="100%">
            <stop offset="0%" stop-color="#7d6322" />
            <stop offset="50%" stop-color="#d4af37" />
            <stop offset="100%" stop-color="#f5e3b3" />
        </linearGradient>
    </defs>
    <path fill="url(#goldGradient)" stroke="url(#goldGradient)" stroke-miterlimit="10" stroke-width="0.5px" d="M411.93,272.88c-1-.09-1.65-.19-2.3-.19q-43.24,0-86.48,0a22.3,22.3,0,0,0-4.45.49c-17.12,3.53-28.28,17.38-28.35,35.55-.1,24.83,0,49.66,0,74.48,0,11.76-7,20.31-18,20.52-21.81.41-43.64.23-65.44-.37-9.92-.27-14.36-4.85-17.15-14.6-.65-2.26-1.42-4.47-2.13-6.7l-.94.26v28.74c1.77.09,3.24.23,4.71.23,26,0,52,0,78-.05,24.59-.08,38.65-14.32,38.67-39,0-24.16-.06-48.32,0-72.48,0-11.52,8-20,19.19-20.07q30.24-.24,60.48.1c13,.16,18.14,4.53,21.54,17.15.43,1.59,1.09,3.12,1.65,4.68l1.09-.31ZM258,387.24c11.42,3.16,17.5-1.26,17.51-12.27q0-42.75,0-85.5c0-9.08,0-9.26,9-9.51,3.74-.1,4.52-2.19,3.53-4.71-.49-1.28-3.13-2.43-4.8-2.43-30.83-.15-61.66-.12-92.5-.1-1.42,0-2.85.2-4.09.29V301.6l1.61.56a38.25,38.25,0,0,0,2.41-6.08c2.08-9.79,7.93-15.4,18-15.59,19.64-.37,39.3-.35,58.95-.45.15,0,.3.46.63,1-8.27,4.08-10.58,11.17-10.32,19.87.3,10.16,0,20.33.13,30.5.06,3.41-.93,4.82-4.5,4.64-5.82-.31-11.67-.12-17.49-.36-13.29-.56-17.37-4.59-18.62-17.72-.14-1.44-1.4-2.78-2.14-4.16-.51,1.4-1.46,2.81-1.48,4.22-.11,13.83-.14,27.66,0,41.5,0,2,1.14,4,1.75,6,.68-2,1.78-4,2-6,1-10.47,5.17-14.87,15.74-15.74,5.48-.46,11-.62,16.48-.64,9.66,0,8.13-.58,8.19,8.36C258.08,363.45,258,375.43,258,387.24Zm154-5.16-1.38-.7c-.9,1.67-2.13,3.24-2.63,5-3.51,12.49-8.19,16.87-20.56,17.1-18.82.36-37.65.11-56.48.1-.22,0-.44-.36-1.05-.89,9-4.33,10.73-12,10.45-20.92-.31-10,0-20-.11-30,0-2.85.7-4.35,3.91-4.21,6.49.29,13-.06,19.47.57,12.84,1.25,16,4.66,17.35,17.47.16,1.44.59,2.84,1.05,5,2.42-3.39,3.67-40.37,2.25-50.13-.12-.87-1-1.62-1.48-2.44-.83.54-1.31.69-1.34.91-.29,1.8-.48,3.61-.73,5.42-1.53,10.9-4.59,14.27-15.48,15.4-7.1.74-14.3.48-21.45.79-3.09.13-3.54-1.55-3.51-4.07.07-6.83,0-13.66,0-20.5,0-6.61,0-13.23,0-19.7-12.64-2.49-17.44,1.27-17.44,13q0,43.76,0,87.5c0,6.89,0,6.89-7.1,6.94-6,.05-6.46.66-4.68,6.84H412Z" transform="translate(-79.05 -149.34)" />
    <path fill="url(#goldGradient)" stroke="url(#goldGradient)" stroke-miterlimit="10" stroke-width="0.5px" d="M411.93,272.88v28.48l-1.09.31c-.56-1.56-1.22-3.09-1.65-4.68-3.4-12.62-8.54-17-21.54-17.15q-30.24-.37-60.48-.1C316,279.82,308,288.29,308,299.81c-.08,24.16,0,48.32,0,72.48,0,24.65-14.08,38.89-38.67,39-26,.09-52,.05-78,.05-1.47,0-2.94-.14-4.71-.23V382.34l.94-.26c.71,2.23,1.48,4.44,2.13,6.7,2.79,9.75,7.23,14.33,17.15,14.6,21.8.6,43.63.78,65.44.37,11.06-.21,18-8.76,18-20.52.09-24.82-.06-49.65,0-74.48.07-18.17,11.23-32,28.35-35.55a22.3,22.3,0,0,1,4.45-.49q43.25,0,86.48,0C410.28,272.69,410.93,272.79,411.93,272.88Z" transform="translate(-79.05 -149.34)" />
    <path fill="url(#goldGradient)" stroke="url(#goldGradient)" stroke-miterlimit="10" stroke-width="0.5px" d="M258,387.24c0-11.81.06-23.79,0-35.76-.06-8.94,1.47-8.4-8.19-8.36-5.49,0-11,.18-16.48.64-10.57.87-14.73,5.27-15.74,15.74-.2,2.05-1.3,4-2,6-.61-2-1.72-4-1.75-6-.15-13.84-.12-27.67,0-41.5,0-1.41,1-2.82,1.48-4.22.74,1.38,2,2.72,2.14,4.16,1.25,13.13,5.33,17.16,18.62,17.72,5.82.24,11.67.05,17.49.36,3.57.18,4.56-1.23,4.5-4.64-.17-10.17.17-20.34-.13-30.5-.26-8.7,2.05-15.79,10.32-19.87-.33-.54-.48-1-.63-1-19.65.1-39.31.08-58.95.45-10,.19-15.89,5.8-18,15.59a38.25,38.25,0,0,1-2.41,6.08l-1.61-.56V273c1.24-.09,2.67-.29,4.09-.29,30.84,0,61.67-.05,92.5.1,1.67,0,4.31,1.15,4.8,2.43,1,2.52.21,4.61-3.53,4.71-9,.25-9,.43-9,9.51q0,42.75,0,85.5C275.52,386,269.44,390.4,258,387.24Z" transform="translate(-79.05 -149.34)" />
    <path fill="url(#goldGradient)" stroke="url(#goldGradient)" stroke-miterlimit="10" stroke-width="0.5px" d="M412,382.08v28.54H311c-1.78-6.18-1.35-6.79,4.68-6.84,7.09,0,7.1,0,7.1-6.94q0-43.75,0-87.5c0-11.74,4.8-15.5,17.44-13,0,6.47,0,13.09,0,19.7,0,6.84.07,13.67,0,20.5,0,2.52.42,4.2,3.51,4.07,7.15-.31,14.35-.05,21.45-.79,10.89-1.13,13.95-4.5,15.48-15.4.25-1.81.44-3.62.73-5.42,0-.22.51-.37,1.34-.91.51.82,1.36,1.57,1.48,2.44,1.42,9.76.17,46.74-2.25,50.13-.46-2.18-.89-3.58-1.05-5-1.39-12.81-4.51-16.22-17.35-17.47-6.44-.63-13-.28-19.47-.57-3.21-.14-3.94,1.36-3.91,4.21.1,10-.2,20,.11,30,.28,8.92-1.45,16.59-10.45,20.92.61.53.83.89,1.05.89,18.83,0,37.66.26,56.48-.1,12.37-.23,17-4.61,20.56-17.1.5-1.79,1.73-3.36,2.63-5Z" transform="translate(-79.05 -149.34)" />
</svg>