<?xml version="1.0" standalone="no"?>
<!DOCTYPE svg PUBLIC "-//W3C//DTD SVG 20010904//EN"
        "http://www.w3.org/TR/2001/REC-SVG-20010904/DTD/svg10.dtd">
<svg version="1.0" xmlns="http://www.w3.org/2000/svg"
     width="531.000000pt" height="532.000000pt" viewBox="0 0 531.000000 532.000000"
     preserveAspectRatio="xMidYMid meet">

    <rect width="100%" height="100%" fill="#FFFFFF" />
    <g transform="translate(0.000000,532.000000) scale(0.100000,-0.100000)"
       fill="#FF7A00" stroke="none"> <path d="M0 2660 l0 -2660 2655 0 2655 0 0 2660 0 2660 -2655 0 -2655 0 0
-2660z m2713 1684 c15 -3 27 -10 27 -16 0 -20 93 -194 202 -375 130 -219 128
-213 95 -213 -19 0 -53 29 -145 128 -66 70 -142 154 -170 188 -55 67 -107 114
-126 114 -16 0 -101 -89 -186 -195 -139 -173 -213 -255 -231 -255 -18 0 -7 27
67 159 108 192 234 410 258 449 l21 33 80 -6 c44 -3 92 -8 108 -11z m-963
-531 c3 -78 7 -143 10 -145 12 -10 2271 11 2360 21 121 14 169 37 209 100 17
27 39 56 50 65 17 16 18 12 24 -108 7 -153 -3 -636 -14 -636 -4 0 -13 17 -20
37 -14 42 -98 131 -150 159 -27 14 -69 19 -209 25 -252 11 -1048 11 -1054 0
-3 -5 42 -28 102 -51 334 -133 511 -274 617 -495 67 -138 80 -193 79 -325 -1
-118 -19 -206 -65 -315 -92 -221 -250 -370 -559 -525 -43 -22 -81 -43 -84 -48
-7 -12 875 -26 1031 -17 98 6 125 11 159 31 47 26 93 75 126 134 13 22 26 40
31 40 4 0 7 -173 7 -385 0 -212 -2 -385 -5 -385 -2 0 -12 14 -21 32 -26 50
-102 125 -167 165 l-60 36 -1541 -7 c-1514 -7 -1542 -8 -1573 -27 -40 -25
-110 -103 -131 -146 -8 -18 -19 -30 -24 -27 -11 7 -10 741 1 749 6 3 23 -14
39 -37 38 -55 133 -145 167 -158 45 -17 306 -35 355 -24 l45 9 2 250 c2 138
-1 536 -5 885 l-7 635 -192 3 c-174 2 -197 1 -231 -17 -37 -19 -128 -108 -149
-146 -7 -11 -15 -16 -20 -12 -4 5 -10 175 -12 378 -2 313 -1 369 11 369 8 0
24 -18 37 -40 35 -63 117 -146 162 -164 41 -17 381 -42 400 -30 5 3 9 67 9
143 0 76 3 141 7 145 4 3 61 5 127 4 l121 -3 5 -142z"/>
        <path d="M1760 3191 c0 -83 4 -152 9 -155 4 -3 53 26 108 64 106 73 224 135
360 189 46 18 80 37 77 42 -3 5 -129 9 -280 9 l-274 0 0 -149z"/>
        <path d="M2510 3320 c-311 -30 -557 -205 -671 -478 -52 -126 -72 -238 -72
-402 0 -219 32 -337 141 -524 78 -133 189 -227 367 -309 108 -49 157 -57 364
-57 205 0 278 13 383 65 218 110 347 269 433 535 24 73 28 106 32 235 4 137 2
159 -21 250 -27 105 -93 252 -148 333 -172 252 -476 384 -808 352z"/>
        <path d="M1753 1804 c-3 -8 -3 -60 -1 -115 7 -146 5 -144 205 -141 87 2 181 6
208 11 l50 8 -34 13 c-65 25 -221 110 -321 175 -81 52 -102 62 -107 49z"/>
    </g>
</svg>